<svg xmlns="http://www.w3.org/2000/svg" xmlns:xlink="http://www.w3.org/1999/xlink" xmlns:lucid="lucid" width="855.71" height="693.5"><g transform="translate(1367.853447214657 413.00000000005076)" lucid:page-tab-id="0_0"><path d="M-1500-500h1000V500h-1000z" fill="#fff"/><path d="M-920-59.5v159M-920-79.5v20m-10 0h20M-920 119.5v-20m10 0h-20" stroke="#333" fill="none"/><use xlink:href="#a" transform="matrix(1,0,0,1,-902,-69.42187500000001) translate(0.004999999999999005 17.22222222222222)"/><use xlink:href="#b" transform="matrix(1,0,0,1,-902,-69.42187500000001) translate(24.518888888888892 17.22222222222222)"/><use xlink:href="#c" transform="matrix(1,0,0,1,-902,87.9114583333333) translate(0.004999999999999005 17.22222222222222)"/><use xlink:href="#d" transform="matrix(1,0,0,1,-902,87.9114583333333) translate(30.725486111111113 17.22222222222222)"/><path d="M-1060-295a5 5 0 0 1 5-5h270a5 5 0 0 1 5 5v210a5 5 0 0 1-5 5h-270a5 5 0 0 1-5-5z" fill="#fff"/><path d="M-1060-260v-35a5 5 0 0 1 5-5h270a5 5 0 0 1 5 5v35" fill="#ccc"/><path d="M-1060-260v31h280v-31" fill="#fff"/><path d="M-1060-230v31h280v-31" fill="#fff"/><path d="M-1060-200v31h280v-31" fill="#fff"/><path d="M-1060-170v31h280v-31" fill="#fff"/><path d="M-1060-140v31h280v-31" fill="#fff"/><path d="M-1060-110v25a5 5 0 0 0 5 5h270a5 5 0 0 0 5-5v-25" fill="#fff"/><path d="M-1060-260h280M-1060-295a5 5 0 0 1 5-5h270a5 5 0 0 1 5 5v210a5 5 0 0 1-5 5h-270a5 5 0 0 1-5-5z" stroke="#333" fill="none"/><use xlink:href="#e" transform="matrix(1,0,0,1,-1050,-300) translate(89.7970263671875 26.089501953125)"/><use xlink:href="#f" transform="matrix(1,0,0,1,-1055,-257.5) translate(0 18.589501953125)"/><use xlink:href="#g" transform="matrix(1,0,0,1,-1055,-257.5) translate(19.028671875 18.589501953125)"/><use xlink:href="#h" transform="matrix(1,0,0,1,-1055,-227.5) translate(0 18.589501953125)"/><use xlink:href="#i" transform="matrix(1,0,0,1,-1055,-197.5) translate(0 18.589501953125)"/><use xlink:href="#j" transform="matrix(1,0,0,1,-1055,-167.5) translate(0 18.589501953125)"/><use xlink:href="#k" transform="matrix(1,0,0,1,-1055,-137.5) translate(0 18.589501953125)"/><use xlink:href="#l" transform="matrix(1,0,0,1,-1055,-107.5) translate(0 18.589501953125)"/><path d="M-1060 125a5 5 0 0 1 5-5h270a5 5 0 0 1 5 5v150a5 5 0 0 1-5 5h-270a5 5 0 0 1-5-5z" fill="#fff"/><path d="M-1060 160v-35a5 5 0 0 1 5-5h270a5 5 0 0 1 5 5v35" fill="#ccc"/><path d="M-1060 160v31h280v-31" fill="#fff"/><path d="M-1060 190v31h280v-31" fill="#fff"/><path d="M-1060 220v31h280v-31" fill="#fff"/><path d="M-1060 250v25a5 5 0 0 0 5 5h270a5 5 0 0 0 5-5v-25" fill="#fff"/><path d="M-1060 160h280M-1060 125a5 5 0 0 1 5-5h270a5 5 0 0 1 5 5v150a5 5 0 0 1-5 5h-270a5 5 0 0 1-5-5z" stroke="#333" fill="none"/><use xlink:href="#m" transform="matrix(1,0,0,1,-1050,120) translate(93.7041162109375 26.089501953125)"/><use xlink:href="#f" transform="matrix(1,0,0,1,-1055,162.5) translate(0 18.589501953125)"/><use xlink:href="#g" transform="matrix(1,0,0,1,-1055,162.5) translate(19.028671875 18.589501953125)"/><use xlink:href="#n" transform="matrix(1,0,0,1,-1055,192.5) translate(0 18.589501953125)"/><use xlink:href="#o" transform="matrix(1,0,0,1,-1055,222.5) translate(0 18.589501953125)"/><use xlink:href="#p" transform="matrix(1,0,0,1,-1055,252.5) translate(0 18.589501953125)"/><use xlink:href="#q" transform="matrix(1,0,0,1,-1055,252.5) translate(54.40500000000001 18.589501953125)"/><path d="M-1366.85-404a8 8 0 0 1 8-8h836.75a8 8 0 0 1 8 8v25.15a8 8 0 0 1-8 8h-836.75a8 8 0 0 1-8-8z" stroke="#000" stroke-opacity="0" stroke-width="2" fill="#fff" fill-opacity="0"/><use xlink:href="#r" transform="matrix(1,0,0,1,-1362.853447214657,-408.00000000005076) translate(356.22821940104166 28.429583333333333)"/><use xlink:href="#s" transform="matrix(1,0,0,1,-1362.853447214657,-408.00000000005076) translate(420.37420247395835 28.429583333333333)"/><path d="M-1312.72-372.2h751.8M-1312.7-372.2h-1.02M-560.95-372.2h1.03" stroke="#a9afb8" stroke-width="2" fill="none"/><path d="M-1366.85-362.85a8 8 0 0 1 8-8h837.7a8 8 0 0 1 8 8v2.85a8 8 0 0 1-8 8h-837.7a8 8 0 0 1-8-8z" stroke="#000" stroke-opacity="0" stroke-width="2" fill="#fff" fill-opacity="0"/><g><use xlink:href="#t" transform="matrix(1,0,0,1,-1362.8534472146566,-366.84477604315197) translate(332.8471275499132 16.461006944444446)"/><use xlink:href="#u" transform="matrix(1,0,0,1,-1362.8534472146566,-366.84477604315197) translate(377.7465372721354 16.461006944444446)"/><use xlink:href="#v" transform="matrix(1,0,0,1,-1362.8534472146566,-366.84477604315197) translate(390.47868733723953 16.461006944444446)"/><use xlink:href="#w" transform="matrix(1,0,0,1,-1362.8534472146566,-366.84477604315197) translate(468.23996392144096 16.461006944444446)"/><use xlink:href="#x" transform="matrix(1,0,0,1,-1362.8534472146566,-366.84477604315197) translate(484.79939968532983 16.461006944444446)"/></g><defs><path fill="#333" d="M169-607c0-330 107-732 258-974h279c-145 311-231 674-231 974 0 262 67 512 231 886H427C258-1 169-307 169-607" id="y"/><path fill="#333" d="M749-1490V0H444v-1221h-10L93-980v-279l329-231h327" id="z"/><path fill="#333" d="M119 395l88-620h300L323 395H119" id="A"/><g id="a"><use transform="matrix(0.008680555555555556,0,0,0.008680555555555556,0,0)" xlink:href="#y"/><use transform="matrix(0.008680555555555556,0,0,0.008680555555555556,6.701388888888889,0)" xlink:href="#z"/><use transform="matrix(0.008680555555555556,0,0,0.008680555555555556,14.366319444444446,0)" xlink:href="#A"/></g><path fill="#333" d="M135 0v-1490h340l471 754c59 97 122 210 187 365-32-387-14-721-19-1119h312V0h-341C855-382 627-689 427-1113c32 420 16 695 20 1113H135" id="B"/><path fill="#333" d="M67 279c166-379 230-627 230-886 0-300-86-663-230-974h278c151 241 258 644 258 974 0 302-90 608-258 886H67" id="C"/><g id="b"><use transform="matrix(0.008680555555555556,0,0,0.008680555555555556,0,0)" xlink:href="#B"/><use transform="matrix(0.008680555555555556,0,0,0.008680555555555556,13.871527777777779,0)" xlink:href="#C"/></g><g id="c"><use transform="matrix(0.008680555555555556,0,0,0.008680555555555556,0,0)" xlink:href="#y"/><use transform="matrix(0.008680555555555556,0,0,0.008680555555555556,7.022569444444445,0)" xlink:href="#B"/><use transform="matrix(0.008680555555555556,0,0,0.008680555555555556,20.572916666666668,0)" xlink:href="#A"/></g><g id="d"><use transform="matrix(0.008680555555555556,0,0,0.008680555555555556,0,0)" xlink:href="#z"/><use transform="matrix(0.008680555555555556,0,0,0.008680555555555556,7.986111111111112,0)" xlink:href="#C"/></g><path fill="#333" d="M677 24c-359 0-556-231-505-538l162-976h190L363-516c-36 218 86 364 321 364 246 0 428-159 464-377l159-961h190l-163 989c-51 309-312 525-657 525" id="D"/><path fill="#333" d="M691-1118l-25 154H437L325-290c-17 103 16 144 108 144 23 0 63-6 94-12L538-6c-36 12-87 20-136 20-196 0-290-109-260-290l114-688H88l25-154h169l44-266h180l-44 266h229" id="E"/><path fill="#333" d="M66 0l185-1118h180L246 0H66zm307-1301c-71 0-117-55-106-119s74-119 145-119c65 0 117 50 106 118s-78 120-145 120" id="F"/><path fill="#333" d="M492-1490L245 0H65l247-1490h180" id="G"/><path fill="#333" d="M451 24C217 22 71-78 61-277l174-29c11 123 90 172 219 172 161 0 280-83 297-181 11-71-30-117-135-143l-179-44c-195-48-280-153-253-316 31-186 223-314 455-314 233 4 337 107 366 275l-165 30c-18-80-65-152-204-152-138 0-256 75-272 174-13 77 32 118 158 149l162 40c195 48 278 154 252 313C904-113 708 24 451 24" id="H"/><path fill="#333" d="M481 24C202 24 45-202 104-557s293-575 571-575c216 0 263 132 291 193h15l29-179h181L1006 0H831l28-173h-21C788-107 693 24 481 24zm56-161c204 0 342-174 383-422s-41-412-245-412c-215 0-350 183-388 412-39 235 39 422 250 422" id="I"/><path fill="#333" d="M535 24C259 24 94-144 94-427c0-392 272-715 610-715 216 0 356 119 356 305 0 244-237 344-790 350-18 199 49 349 276 352 142 0 260-66 317-173l167 47C947-85 756 24 535 24zM294-623c447-4 586-57 586-218 0-85-78-141-194-141-220 0-342 177-392 359" id="J"/><path fill="#333" d="M443 14C219 14 87-123 134-408l117-710h180L317-423c-28 171 49 275 206 275s300-105 332-300l110-670h181L961 0H787l35-209C722-47 590 14 443 14" id="K"/><path fill="#333" d="M66 0l185-1118h174l-28 172h12c78-136 219-209 411-185l-30 181c-211-47-398 67-428 250L246 0H66" id="L"/><g id="e"><use transform="matrix(0.008173828125000001,0,0,0.008173828125000001,0,0)" xlink:href="#D"/><use transform="matrix(0.008173828125000001,0,0,0.008173828125000001,12.448740234375002,0)" xlink:href="#E"/><use transform="matrix(0.008173828125000001,0,0,0.008173828125000001,17.941552734375,0)" xlink:href="#F"/><use transform="matrix(0.008173828125000001,0,0,0.008173828125000001,22.0039453125,0)" xlink:href="#G"/><use transform="matrix(0.008173828125000001,0,0,0.008173828125000001,26.058164062500005,0)" xlink:href="#F"/><use transform="matrix(0.008173828125000001,0,0,0.008173828125000001,30.120556640625,0)" xlink:href="#H"/><use transform="matrix(0.008173828125000001,0,0,0.008173828125000001,38.948291015625,0)" xlink:href="#I"/><use transform="matrix(0.008173828125000001,0,0,0.008173828125000001,49.22279296875001,0)" xlink:href="#E"/><use transform="matrix(0.008173828125000001,0,0,0.008173828125000001,54.552128906250005,0)" xlink:href="#J"/><use transform="matrix(0.008173828125000001,0,0,0.008173828125000001,64.189072265625,0)" xlink:href="#K"/><use transform="matrix(0.008173828125000001,0,0,0.008173828125000001,74.095751953125,0)" xlink:href="#L"/></g><path fill="#333" d="M492 24C248 24 94-147 94-425c0-352 212-707 569-707 222 0 274 136 303 198h12l92-556h181L1004 0H829l30-173h-19C792-103 700 24 492 24zm32-161c268 0 407-295 407-549 0-175-80-285-247-285-266 0-408 283-408 536 0 174 79 298 248 298" id="M"/><g id="f"><use transform="matrix(0.008173828125000001,0,0,0.008173828125000001,0,0)" xlink:href="#F"/><use transform="matrix(0.008173828125000001,0,0,0.008173828125000001,4.062392578125,0)" xlink:href="#M"/></g><path fill="#333" d="M226-608c54-324 228-726 419-973h175c-209 318-363 684-411 972-44 264-11 530 103 888H337C213-15 178-320 226-608" id="N"/><path fill="#333" d="M87 0l247-1490h510c346 0 473 206 430 472s-238 479-586 479H366L277 0H87zm307-706h312c241 0 351-138 379-311s-39-306-279-306H496" id="O"/><path fill="#333" d="M87 0l247-1490h191c-43 258-85 518-132 772 260-273 546-514 821-772h258L763-845 1226 0h-209L622-727 358-490 278 0H87" id="P"/><path fill="#333" d="M-43 280C186-71 310-340 354-607c48-291 15-654-89-973h176c108 246 149 649 95 974-48 289-184 595-403 886H-43" id="Q"/><g id="g"><use transform="matrix(0.008173828125000001,0,0,0.008173828125000001,0,0)" xlink:href="#N"/><use transform="matrix(0.008173828125000001,0,0,0.008173828125000001,6.105849609375,0)" xlink:href="#O"/><use transform="matrix(0.008173828125000001,0,0,0.008173828125000001,16.797216796875002,0)" xlink:href="#P"/><use transform="matrix(0.008173828125000001,0,0,0.008173828125000001,28.044404296875,0)" xlink:href="#Q"/></g><path fill="#333" d="M356-664L245 0H65l186-1118h173l-32 197c96-152 219-211 366-211 232 0 366 145 319 428L960 0H779l117-701c29-174-48-269-198-269-165 0-310 115-342 306" id="R"/><path fill="#333" d="M65 0l186-1118h175l-31 195c80-148 212-215 337-215 153 0 236 96 255 228 75-143 223-228 382-228 199 0 341 131 298 390L1543 0h-181l126-756c27-162-65-218-177-218-160 0-274 111-297 250L894 0H714l128-773c21-127-57-201-174-201-136 0-277 97-307 277L245 0H65" id="S"/><g id="h"><use transform="matrix(0.008173828125000001,0,0,0.008173828125000001,0,0)" xlink:href="#K"/><use transform="matrix(0.008173828125000001,0,0,0.008173828125000001,9.9066796875,0)" xlink:href="#H"/><use transform="matrix(0.008173828125000001,0,0,0.008173828125000001,18.7344140625,0)" xlink:href="#J"/><use transform="matrix(0.008173828125000001,0,0,0.008173828125000001,28.371357421875004,0)" xlink:href="#L"/><use transform="matrix(0.008173828125000001,0,0,0.008173828125000001,34.94311523437501,0)" xlink:href="#R"/><use transform="matrix(0.008173828125000001,0,0,0.008173828125000001,44.84162109375001,0)" xlink:href="#I"/><use transform="matrix(0.008173828125000001,0,0,0.008173828125000001,55.11612304687501,0)" xlink:href="#S"/><use transform="matrix(0.008173828125000001,0,0,0.008173828125000001,69.77997070312502,0)" xlink:href="#J"/></g><g id="i"><use transform="matrix(0.008173828125000001,0,0,0.008173828125000001,0,0)" xlink:href="#J"/><use transform="matrix(0.008173828125000001,0,0,0.008173828125000001,9.636943359375001,0)" xlink:href="#S"/><use transform="matrix(0.008173828125000001,0,0,0.008173828125000001,24.300791015625002,0)" xlink:href="#I"/><use transform="matrix(0.008173828125000001,0,0,0.008173828125000001,34.575292968750006,0)" xlink:href="#F"/><use transform="matrix(0.008173828125000001,0,0,0.008173828125000001,38.637685546875005,0)" xlink:href="#G"/></g><path fill="#333" d="M-4 418l255-1536h174l-30 179h9c47-68 143-193 355-193 246 0 401 170 401 447 0 348-211 709-568 709-219 0-274-140-300-202h-17l-99 596H-4zm572-555c267 0 411-296 411-543 0-170-78-291-250-291-269 0-405 284-405 542 0 177 81 292 244 292" id="T"/><path fill="#333" d="M317 0L163-1118h191c34 329 72 559 91 925 130-352 253-602 392-925h192c32 328 66 558 83 922 132-350 256-600 396-922h191L1175 0H996c-36-314-76-577-98-915C766-585 635-312 496 0H317" id="U"/><path fill="#333" d="M528 24C258 24 94-156 94-433c0-355 229-699 603-699 270 0 436 178 436 458 0 359-234 698-605 698zm4-161c275 0 420-287 420-533 0-170-77-301-260-301-271 0-418 288-418 536 0 168 77 298 258 298" id="V"/><g id="j"><use transform="matrix(0.008173828125000001,0,0,0.008173828125000001,0,0)" xlink:href="#T"/><use transform="matrix(0.008173828125000001,0,0,0.008173828125000001,10.258154296875,0)" xlink:href="#I"/><use transform="matrix(0.008173828125000001,0,0,0.008173828125000001,20.532656250000002,0)" xlink:href="#H"/><use transform="matrix(0.008173828125000001,0,0,0.008173828125000001,29.360390625,0)" xlink:href="#H"/><use transform="matrix(0.008173828125000001,0,0,0.008173828125000001,38.188125,0)" xlink:href="#U"/><use transform="matrix(0.008173828125000001,0,0,0.008173828125000001,51.585029296875,0)" xlink:href="#V"/><use transform="matrix(0.008173828125000001,0,0,0.008173828125000001,61.6306640625,0)" xlink:href="#L"/><use transform="matrix(0.008173828125000001,0,0,0.008173828125000001,67.66294921874999,0)" xlink:href="#M"/></g><path fill="#333" d="M528 24C258 24 94-156 94-433c0-354 228-699 603-699 222 0 381 120 410 314l-176 39c-14-114-95-192-238-192-272 0-419 288-419 536 0 167 76 298 258 298 155 0 277-90 329-211l166 58C935-93 745 24 528 24" id="W"/><path fill="#333" d="M-41 0l788-1490h220L1268 0h-192l-80-416H383L169 0H-41zm509-582h497c-56-293-77-375-126-756-162 359-224 468-371 756" id="X"/><g id="k"><use transform="matrix(0.008173828125000001,0,0,0.008173828125000001,0,0)" xlink:href="#W"/><use transform="matrix(0.008173828125000001,0,0,0.008173828125000001,9.571552734375,0)" xlink:href="#L"/><use transform="matrix(0.008173828125000001,0,0,0.008173828125000001,15.603837890625002,0)" xlink:href="#J"/><use transform="matrix(0.008173828125000001,0,0,0.008173828125000001,25.24078125,0)" xlink:href="#I"/><use transform="matrix(0.008173828125000001,0,0,0.008173828125000001,35.51528320312501,0)" xlink:href="#E"/><use transform="matrix(0.008173828125000001,0,0,0.008173828125000001,40.84461914062501,0)" xlink:href="#J"/><use transform="matrix(0.008173828125000001,0,0,0.008173828125000001,50.4815625,0)" xlink:href="#M"/><use transform="matrix(0.008173828125000001,0,0,0.008173828125000001,60.73971679687501,0)" xlink:href="#X"/><use transform="matrix(0.008173828125000001,0,0,0.008173828125000001,71.96238281250001,0)" xlink:href="#E"/></g><g id="l"><use transform="matrix(0.008173828125000001,0,0,0.008173828125000001,0,0)" xlink:href="#K"/><use transform="matrix(0.008173828125000001,0,0,0.008173828125000001,9.9066796875,0)" xlink:href="#T"/><use transform="matrix(0.008173828125000001,0,0,0.008173828125000001,20.164833984375,0)" xlink:href="#M"/><use transform="matrix(0.008173828125000001,0,0,0.008173828125000001,30.42298828125,0)" xlink:href="#I"/><use transform="matrix(0.008173828125000001,0,0,0.008173828125000001,40.697490234375,0)" xlink:href="#E"/><use transform="matrix(0.008173828125000001,0,0,0.008173828125000001,46.026826171875,0)" xlink:href="#J"/><use transform="matrix(0.008173828125000001,0,0,0.008173828125000001,55.663769531250004,0)" xlink:href="#M"/><use transform="matrix(0.008173828125000001,0,0,0.008173828125000001,65.921923828125,0)" xlink:href="#X"/><use transform="matrix(0.008173828125000001,0,0,0.008173828125000001,77.14458984375,0)" xlink:href="#E"/></g><path fill="#333" d="M87 0l247-1490h270l211 940c16 74 39 220 54 339 57-123 125-267 165-339l519-940h271L1577 0h-187c75-441 134-849 220-1287C1371-790 1163-459 914 0H749C649-458 553-779 473-1282 408-826 339-440 268 0H87" id="Y"/><path fill="#333" d="M456 442C197 442 73 327 25 209l155-84c33 60 86 160 280 160 184 0 332-89 363-272l37-218-16 4C793-134 707-18 498-18 260-18 96-170 96-443c0-341 216-689 568-689 222 0 274 139 301 198l21-5 30-179h175L999 35c-48 288-275 407-543 407zm75-620c274 0 401-267 401-512 0-170-80-281-247-281-260 0-408 269-408 518 0 167 83 275 254 275" id="Z"/><g id="m"><use transform="matrix(0.008173828125000001,0,0,0.008173828125000001,0,0)" xlink:href="#Y"/><use transform="matrix(0.008173828125000001,0,0,0.008173828125000001,15.121582031250002,0)" xlink:href="#J"/><use transform="matrix(0.008173828125000001,0,0,0.008173828125000001,24.758525390625003,0)" xlink:href="#H"/><use transform="matrix(0.008173828125000001,0,0,0.008173828125000001,33.586259765625,0)" xlink:href="#H"/><use transform="matrix(0.008173828125000001,0,0,0.008173828125000001,42.413994140625,0)" xlink:href="#I"/><use transform="matrix(0.008173828125000001,0,0,0.008173828125000001,52.688496093750004,0)" xlink:href="#Z"/><use transform="matrix(0.008173828125000001,0,0,0.008173828125000001,62.954824218750005,0)" xlink:href="#J"/></g><g id="n"><use transform="matrix(0.008173828125000001,0,0,0.008173828125000001,0,0)" xlink:href="#W"/><use transform="matrix(0.008173828125000001,0,0,0.008173828125000001,9.571552734375,0)" xlink:href="#V"/><use transform="matrix(0.008173828125000001,0,0,0.008173828125000001,19.6171875,0)" xlink:href="#R"/><use transform="matrix(0.008173828125000001,0,0,0.008173828125000001,29.515693359375,0)" xlink:href="#E"/><use transform="matrix(0.008173828125000001,0,0,0.008173828125000001,34.845029296875,0)" xlink:href="#J"/><use transform="matrix(0.008173828125000001,0,0,0.008173828125000001,44.48197265625,0)" xlink:href="#R"/><use transform="matrix(0.008173828125000001,0,0,0.008173828125000001,54.380478515625,0)" xlink:href="#E"/></g><g id="o"><use transform="matrix(0.008173828125000001,0,0,0.008173828125000001,0,0)" xlink:href="#E"/><use transform="matrix(0.008173828125000001,0,0,0.008173828125000001,5.4928125,0)" xlink:href="#F"/><use transform="matrix(0.008173828125000001,0,0,0.008173828125000001,9.555205078125,0)" xlink:href="#S"/><use transform="matrix(0.008173828125000001,0,0,0.008173828125000001,24.219052734375005,0)" xlink:href="#J"/><use transform="matrix(0.008173828125000001,0,0,0.008173828125000001,33.85599609375001,0)" xlink:href="#H"/><use transform="matrix(0.008173828125000001,0,0,0.008173828125000001,42.68373046875001,0)" xlink:href="#E"/><use transform="matrix(0.008173828125000001,0,0,0.008173828125000001,48.013066406250005,0)" xlink:href="#I"/><use transform="matrix(0.008173828125000001,0,0,0.008173828125000001,58.28756835937501,0)" xlink:href="#S"/><use transform="matrix(0.008173828125000001,0,0,0.008173828125000001,72.95141601562501,0)" xlink:href="#T"/></g><path fill="#333" d="M524-1490L277 0H87l247-1490h190" id="aa"/><g id="p"><use transform="matrix(0.008173828125000001,0,0,0.008173828125000001,0,0)" xlink:href="#K"/><use transform="matrix(0.008173828125000001,0,0,0.008173828125000001,9.9066796875,0)" xlink:href="#H"/><use transform="matrix(0.008173828125000001,0,0,0.008173828125000001,18.7344140625,0)" xlink:href="#J"/><use transform="matrix(0.008173828125000001,0,0,0.008173828125000001,28.371357421875004,0)" xlink:href="#L"/><use transform="matrix(0.008173828125000001,0,0,0.008173828125000001,34.94311523437501,0)" xlink:href="#aa"/><use transform="matrix(0.008173828125000001,0,0,0.008173828125000001,39.43872070312501,0)" xlink:href="#M"/></g><path fill="#333" d="M87 0l247-1490h901l-28 167H496l-85 512h643l-27 167H384L277 0H87" id="ab"/><g id="q"><use transform="matrix(0.008173828125000001,0,0,0.008173828125000001,0,0)" xlink:href="#N"/><use transform="matrix(0.008173828125000001,0,0,0.008173828125000001,6.105849609375,0)" xlink:href="#ab"/><use transform="matrix(0.008173828125000001,0,0,0.008173828125000001,15.988007812500001,0)" xlink:href="#P"/><use transform="matrix(0.008173828125000001,0,0,0.008173828125000001,27.235195312500004,0)" xlink:href="#Q"/></g><path fill="#a9afb8" d="M135 0v-1490h468l242 684c30 94 76 293 111 455 34-161 80-360 110-455l238-684h470V0h-307c0-447-3-765 11-1227-122 503-246 788-395 1227H826C676-435 552-717 427-1215c15 453 11 775 11 1215H135" id="ac"/><path fill="#a9afb8" d="M786 20C389 20 94-260 94-744c0-487 299-766 692-766 339 0 597 194 641 529h-309c-28-162-156-258-326-258-233 0-388 179-388 495 0 323 157 493 387 493 170 0 298-97 328-259h309c-34 277-266 530-642 530" id="ad"/><path fill="#a9afb8" d="M659 0H135v-1490h529c448 0 721 280 721 744 0 466-273 746-726 746zM440-263h204c287 0 437-148 437-483 0-333-150-481-435-481H440v964" id="ae"/><g id="r"><use transform="matrix(0.011907552083333333,0,0,0.011907552083333333,0,0)" xlink:href="#ac"/><use transform="matrix(0.011907552083333333,0,0,0.011907552083333333,22.719609375,0)" xlink:href="#ad"/><use transform="matrix(0.011907552083333333,0,0,0.011907552083333333,40.75955078125,0)" xlink:href="#ae"/></g><path fill="#a9afb8" d="M135 0v-1490h305c1 251 0 501-5 746 157-254 405-512 598-746h373L849-845 1422 0h-361L638-644 440-426V0H135" id="af"/><path fill="#a9afb8" d="M628 22C291 22 81-210 81-554c0-346 210-578 547-578 336 0 547 232 547 578 0 344-211 576-547 576zm0-236c160 0 242-146 242-341 0-197-82-341-242-341S387-753 387-555c0 195 81 341 241 341" id="ag"/><path fill="#a9afb8" d="M513 14c-232 0-385-159-385-421v-711h300v659c0 139 76 222 202 222 127 0 217-86 217-234v-647h301V0H864l-4-232C797-74 683 14 513 14" id="ah"/><path fill="#a9afb8" d="M440 22C227 22 68-92 68-313c0-250 202-322 422-343 195-21 271-24 271-105 0-95-63-149-175-149-116 0-187 57-211 129l-275-46c57-194 237-305 487-305 240 0 474 108 474 379V0H777v-155h-10C713-51 605 22 440 22zm85-211c140 0 238-93 238-211v-121c-37 26-156 42-222 51-111 16-185 59-185 149 0 87 70 132 169 132" id="ai"/><path fill="#a9afb8" d="M128 0v-1490h300v802h17l366-430h347L740-633 1179 0H826L514-456l-86 97V0H128" id="aj"/><g id="s"><use transform="matrix(0.011907552083333333,0,0,0.011907552083333333,0,0)" xlink:href="#af"/><use transform="matrix(0.011907552083333333,0,0,0.011907552083333333,16.5753125,0)" xlink:href="#ag"/><use transform="matrix(0.011907552083333333,0,0,0.011907552083333333,31.53119791666666,0)" xlink:href="#ah"/><use transform="matrix(0.011907552083333333,0,0,0.011907552083333333,46.71332682291666,0)" xlink:href="#ai"/><use transform="matrix(0.011907552083333333,0,0,0.011907552083333333,60.87140624999999,0)" xlink:href="#aj"/></g><path fill="#a9afb8" d="M180 0v-1490h528c311 0 458 177 458 395 0 191-114 278-244 313v14c139 9 302 137 302 371 0 225-148 397-499 397H180zm190-168h350c232 0 321-102 321-231 0-149-120-277-311-277H370v508zm0-668h328c160 0 286-101 286-255 0-129-87-231-280-231H370v486" id="ak"/><path fill="#a9afb8" d="M628 24c-324 0-524-230-524-574 0-343 198-582 503-582 237 0 487 146 487 559v75H286c9 234 145 362 343 362 132 0 231-58 273-172l174 48C1024-91 857 24 628 24zM287-650h624c-17-190-120-322-304-322-192 0-309 151-320 322" id="al"/><path fill="#a9afb8" d="M338-670V0H158v-1118h173l1 207c72-158 192-221 342-221 226 0 378 139 378 422V0H872v-695c0-172-96-275-252-275-161 0-282 109-282 300" id="am"/><path fill="#a9afb8" d="M157-1118h181V80c1 225-123 350-364 338V252c126 9 184-48 183-172v-1198zm91-183c-68 0-125-53-125-119s57-119 125-119c69 0 126 53 126 119s-57 119-126 119" id="an"/><path fill="#a9afb8" d="M158 0v-1118h180V0H158zm91-1301c-68 0-125-53-125-119s57-119 125-119c69 0 126 53 126 119s-57 119-126 119" id="ao"/><g id="t"><use transform="matrix(0.006946072048611111,0,0,0.006946072048611111,0,0)" xlink:href="#ak"/><use transform="matrix(0.006946072048611111,0,0,0.006946072048611111,9.307736545138889,0)" xlink:href="#al"/><use transform="matrix(0.006946072048611111,0,0,0.006946072048611111,17.601346571180557,0)" xlink:href="#am"/><use transform="matrix(0.006946072048611111,0,0,0.006946072048611111,26.00609375,0)" xlink:href="#an"/><use transform="matrix(0.006946072048611111,0,0,0.006946072048611111,29.451345486111112,0)" xlink:href="#ao"/></g><path fill="#a9afb8" d="M419-1970V480H262v-2450h157" id="ap"/><use transform="matrix(0.006946072048611111,0,0,0.006946072048611111,0,0)" xlink:href="#ap" id="u"/><path fill="#a9afb8" d="M657 26c-323 0-524-166-541-416h195c15 169 171 246 346 246 202 0 356-106 356-265 5-203-294-238-475-293-239-73-380-191-380-389 0-252 224-419 512-419 294 0 499 171 508 396H992c-17-145-151-228-328-228-193 0-321 102-321 242 0 156 175 211 284 241l149 41c160 44 422 134 422 412 0 244-197 432-541 432" id="aq"/><path fill="#a9afb8" d="M158 418v-1536h174v179h20c37-59 106-193 324-193 279 0 474 222 474 576 0 356-194 580-473 580-213 0-288-135-325-197h-14v591H158zm492-555c209 0 317-186 317-421 0-232-105-413-317-413-206 0-314 166-314 413 0 249 111 421 314 421" id="ar"/><path fill="#a9afb8" d="M598-1118v154H368v674c0 100 37 144 132 144 23 0 62-6 92-12L629-6c-37 13-88 20-134 20-193 0-307-107-307-290v-688H20v-154h168v-266h180v266h230" id="as"/><path fill="#a9afb8" d="M158 0v-1118h175l1 205c55-151 181-225 313-225 147 0 245 90 285 228 53-141 190-228 352-228 194 0 352 125 352 384V0h-181v-749c0-161-105-225-225-225-151 0-243 103-243 244V0H807v-767c0-124-93-207-219-207-131 0-250 92-250 270V0H158" id="at"/><path fill="#a9afb8" d="M677 24c-213 0-288-135-325-197h-20V0H158v-1490h180v551h14c37-59 106-193 324-193 279 0 474 222 474 576 0 356-194 580-473 580zm-27-161c209 0 317-186 317-421 0-232-105-413-317-413-206 0-314 166-314 413 0 249 111 421 314 421" id="au"/><path fill="#a9afb8" d="M158 0v-1118h174v172h12c41-113 157-188 290-188 26 0 70 2 91 3v181c-11-2-60-10-108-10-161 0-279 109-279 260V0H158" id="av"/><g id="v"><use transform="matrix(0.006946072048611111,0,0,0.006946072048611111,0,0)" xlink:href="#aq"/><use transform="matrix(0.006946072048611111,0,0,0.006946072048611111,9.127138671875,0)" xlink:href="#al"/><use transform="matrix(0.006946072048611111,0,0,0.006946072048611111,17.420748697916665,0)" xlink:href="#ar"/><use transform="matrix(0.006946072048611111,0,0,0.006946072048611111,26.131123046874997,0)" xlink:href="#as"/><use transform="matrix(0.006946072048611111,0,0,0.006946072048611111,30.646069878472215,0)" xlink:href="#al"/><use transform="matrix(0.006946072048611111,0,0,0.006946072048611111,38.93967990451388,0)" xlink:href="#at"/><use transform="matrix(0.006946072048611111,0,0,0.006946072048611111,51.400933159722214,0)" xlink:href="#au"/><use transform="matrix(0.006946072048611111,0,0,0.006946072048611111,60.11130750868054,0)" xlink:href="#al"/><use transform="matrix(0.006946072048611111,0,0,0.006946072048611111,68.40491753472222,0)" xlink:href="#av"/></g><path fill="#a9afb8" d="M603 20c-253 0-434-161-469-399h188c31 132 124 231 281 231 227 0 367-207 367-568h-12c-80 122-211 199-367 199-257 0-469-206-469-493 0-278 200-505 506-500 245 4 520 158 520 706 0 527-208 824-545 824zm16-703c181 0 324-157 324-332 0-171-135-328-318-328-180 0-317 148-317 332 0 183 131 328 311 328" id="aw"/><path fill="#a9afb8" d="M128 359l88-567h206L266 359H128" id="ax"/><g id="w"><use transform="matrix(0.006946072048611111,0,0,0.006946072048611111,0,0)" xlink:href="#aw"/><use transform="matrix(0.006946072048611111,0,0,0.006946072048611111,8.460315755208335,0)" xlink:href="#ax"/></g><path fill="#a9afb8" d="M154 0v-137l495-537c165-179 249-281 249-418 0-156-121-253-280-253-170 0-278 110-278 278H158c0-264 200-443 465-443 266 0 455 183 455 416 0 161-73 288-336 568L416-179v12h687V0H154" id="ay"/><path fill="#a9afb8" d="M646 20c-332 0-524-278-524-764 0-483 194-766 524-766s524 283 524 766c0 485-191 764-524 764zm0-166c218 0 341-220 341-598 0-380-123-601-341-601s-341 222-341 601c0 378 123 598 341 598" id="az"/><path fill="#a9afb8" d="M626 20c-262 0-458-168-468-396h184c12 133 134 229 284 229 180 0 311-137 311-326 0-192-136-335-323-335-92 0-196 33-255 78l-178-22 88-738h784v167H429l-51 435h8c61-51 160-87 263-87 273 0 474 211 474 499 0 286-210 496-497 496" id="aA"/><g id="x"><use transform="matrix(0.006946072048611111,0,0,0.006946072048611111,0,0)" xlink:href="#ay"/><use transform="matrix(0.006946072048611111,0,0,0.006946072048611111,8.675643988715278,0)" xlink:href="#az"/><use transform="matrix(0.006946072048611111,0,0,0.006946072048611111,17.649969075520833,0)" xlink:href="#ay"/><use transform="matrix(0.006946072048611111,0,0,0.006946072048611111,26.32561306423611,0)" xlink:href="#aA"/></g></defs></g></svg>